<svg width="48" height="48" viewBox="0 0 48 48" fill="none" xmlns="http://www.w3.org/2000/svg">
<rect width="48" height="48" fill="transparent"/>
<g filter="url(#filter0_d_2008_2)">
<path fill-rule="evenodd" clip-rule="evenodd" d="M20.7432 10.7364C21.1333 9.30353 22.4436 8.25 24 8.25C25.5564 8.25 26.8667 9.30353 27.2568 10.7364C27.6415 10.5838 28.061 10.5 28.5 10.5C30.364 10.5 31.875 12.011 31.875 13.875V15.192C32.2269 15.0677 32.6055 15 33 15C34.864 15 36.375 16.511 36.375 18.375V27.7624C36.375 29.916 35.813 32.0323 34.7445 33.9021L32.6985 37.4826C31.8973 38.8847 30.4063 39.75 28.7914 39.75H20.1118C18.6586 39.75 17.2947 39.0482 16.45 37.8656L13.0918 33.1641C12.1378 31.8285 11.625 30.2282 11.625 28.5869V21.75C11.625 19.886 13.136 18.375 15 18.375C15.3945 18.375 15.7731 18.4427 16.125 18.567V13.875C16.125 12.011 17.636 10.5 19.5 10.5C19.939 10.5 20.3585 10.5838 20.7432 10.7364Z" fill="white"/>
</g>
<mask id="path-2-outside-1_2008_2" maskUnits="userSpaceOnUse" x="8.625" y="5.25" width="30" height="37" fill="black">
<rect fill="white" x="8.625" y="5.25" width="30" height="37"/>
<path fill-rule="evenodd" clip-rule="evenodd" d="M20.7432 10.7364C21.1333 9.30353 22.4436 8.25 24 8.25C25.5564 8.25 26.8667 9.30353 27.2568 10.7364C27.6415 10.5838 28.061 10.5 28.5 10.5C30.364 10.5 31.875 12.011 31.875 13.875V15.192C32.2269 15.0677 32.6055 15 33 15C34.864 15 36.375 16.511 36.375 18.375V27.7624C36.375 29.916 35.813 32.0323 34.7445 33.9021L32.6985 37.4826C31.8973 38.8847 30.4063 39.75 28.7914 39.75H20.1118C18.6586 39.75 17.2947 39.0482 16.45 37.8656L13.0918 33.1641C12.1378 31.8285 11.625 30.2282 11.625 28.5869V21.75C11.625 19.886 13.136 18.375 15 18.375C15.3945 18.375 15.7731 18.4427 16.125 18.567V13.875C16.125 12.011 17.636 10.5 19.5 10.5C19.939 10.5 20.3585 10.5838 20.7432 10.7364ZM22.875 21.75C22.875 22.3713 22.3713 22.875 21.75 22.875C21.1287 22.875 20.625 22.3713 20.625 21.75V13.875C20.625 13.2537 20.1213 12.75 19.5 12.75C18.8787 12.75 18.375 13.2537 18.375 13.875V26.25C18.375 26.8713 17.8713 27.375 17.25 27.375C16.6287 27.375 16.125 26.8713 16.125 26.25V21.75C16.125 21.1287 15.6213 20.625 15 20.625C14.3787 20.625 13.875 21.1287 13.875 21.75V28.5869C13.875 29.7592 14.2413 30.9023 14.9227 31.8563L18.2809 36.5578C18.7033 37.1491 19.3852 37.5 20.1118 37.5H28.7914C29.5988 37.5 30.3444 37.0674 30.745 36.3663L32.791 32.7858C33.6652 31.2559 34.125 29.5244 34.125 27.7624V18.375C34.125 17.7537 33.6213 17.25 33 17.25C32.3787 17.25 31.875 17.7537 31.875 18.375V22.875C31.875 23.4963 31.3713 24 30.75 24C30.1287 24 29.625 23.4963 29.625 22.875V13.875C29.625 13.2537 29.1213 12.75 28.5 12.75C27.8787 12.75 27.375 13.2537 27.375 13.875V21.75C27.375 22.3713 26.8713 22.875 26.25 22.875C25.6287 22.875 25.125 22.3713 25.125 21.75V11.625C25.125 11.0037 24.6213 10.5 24 10.5C23.3787 10.5 22.875 11.0037 22.875 11.625V21.75Z"/>
</mask>
<path fill-rule="evenodd" clip-rule="evenodd" d="M20.7432 10.7364C21.1333 9.30353 22.4436 8.25 24 8.25C25.5564 8.25 26.8667 9.30353 27.2568 10.7364C27.6415 10.5838 28.061 10.5 28.5 10.5C30.364 10.5 31.875 12.011 31.875 13.875V15.192C32.2269 15.0677 32.6055 15 33 15C34.864 15 36.375 16.511 36.375 18.375V27.7624C36.375 29.916 35.813 32.0323 34.7445 33.9021L32.6985 37.4826C31.8973 38.8847 30.4063 39.75 28.7914 39.75H20.1118C18.6586 39.75 17.2947 39.0482 16.45 37.8656L13.0918 33.1641C12.1378 31.8285 11.625 30.2282 11.625 28.5869V21.75C11.625 19.886 13.136 18.375 15 18.375C15.3945 18.375 15.7731 18.4427 16.125 18.567V13.875C16.125 12.011 17.636 10.5 19.5 10.5C19.939 10.5 20.3585 10.5838 20.7432 10.7364ZM22.875 21.75C22.875 22.3713 22.3713 22.875 21.75 22.875C21.1287 22.875 20.625 22.3713 20.625 21.75V13.875C20.625 13.2537 20.1213 12.75 19.5 12.75C18.8787 12.75 18.375 13.2537 18.375 13.875V26.25C18.375 26.8713 17.8713 27.375 17.25 27.375C16.6287 27.375 16.125 26.8713 16.125 26.25V21.75C16.125 21.1287 15.6213 20.625 15 20.625C14.3787 20.625 13.875 21.1287 13.875 21.75V28.5869C13.875 29.7592 14.2413 30.9023 14.9227 31.8563L18.2809 36.5578C18.7033 37.1491 19.3852 37.5 20.1118 37.5H28.7914C29.5988 37.5 30.3444 37.0674 30.745 36.3663L32.791 32.7858C33.6652 31.2559 34.125 29.5244 34.125 27.7624V18.375C34.125 17.7537 33.6213 17.25 33 17.25C32.3787 17.25 31.875 17.7537 31.875 18.375V22.875C31.875 23.4963 31.3713 24 30.75 24C30.1287 24 29.625 23.4963 29.625 22.875V13.875C29.625 13.2537 29.1213 12.75 28.5 12.75C27.8787 12.75 27.375 13.2537 27.375 13.875V21.75C27.375 22.3713 26.8713 22.875 26.25 22.875C25.6287 22.875 25.125 22.3713 25.125 21.75V11.625C25.125 11.0037 24.6213 10.5 24 10.5C23.3787 10.5 22.875 11.0037 22.875 11.625V21.75Z" fill="#12131A"/>
<path fill-rule="evenodd" clip-rule="evenodd" d="M20.7432 10.7364C21.1333 9.30353 22.4436 8.25 24 8.25C25.5564 8.25 26.8667 9.30353 27.2568 10.7364C27.6415 10.5838 28.061 10.5 28.5 10.5C30.364 10.5 31.875 12.011 31.875 13.875V15.192C32.2269 15.0677 32.6055 15 33 15C34.864 15 36.375 16.511 36.375 18.375V27.7624C36.375 29.916 35.813 32.0323 34.7445 33.9021L32.6985 37.4826C31.8973 38.8847 30.4063 39.75 28.7914 39.75H20.1118C18.6586 39.75 17.2947 39.0482 16.45 37.8656L13.0918 33.1641C12.1378 31.8285 11.625 30.2282 11.625 28.5869V21.75C11.625 19.886 13.136 18.375 15 18.375C15.3945 18.375 15.7731 18.4427 16.125 18.567V13.875C16.125 12.011 17.636 10.5 19.5 10.5C19.939 10.5 20.3585 10.5838 20.7432 10.7364ZM22.875 21.75C22.875 22.3713 22.3713 22.875 21.75 22.875C21.1287 22.875 20.625 22.3713 20.625 21.75V13.875C20.625 13.2537 20.1213 12.75 19.5 12.75C18.8787 12.75 18.375 13.2537 18.375 13.875V26.25C18.375 26.8713 17.8713 27.375 17.25 27.375C16.6287 27.375 16.125 26.8713 16.125 26.25V21.75C16.125 21.1287 15.6213 20.625 15 20.625C14.3787 20.625 13.875 21.1287 13.875 21.75V28.5869C13.875 29.7592 14.2413 30.9023 14.9227 31.8563L18.2809 36.5578C18.7033 37.1491 19.3852 37.5 20.1118 37.5H28.7914C29.5988 37.5 30.3444 37.0674 30.745 36.3663L32.791 32.7858C33.6652 31.2559 34.125 29.5244 34.125 27.7624V18.375C34.125 17.7537 33.6213 17.25 33 17.25C32.3787 17.25 31.875 17.7537 31.875 18.375V22.875C31.875 23.4963 31.3713 24 30.75 24C30.1287 24 29.625 23.4963 29.625 22.875V13.875C29.625 13.2537 29.1213 12.75 28.5 12.75C27.8787 12.75 27.375 13.2537 27.375 13.875V21.75C27.375 22.3713 26.8713 22.875 26.25 22.875C25.6287 22.875 25.125 22.3713 25.125 21.75V11.625C25.125 11.0037 24.6213 10.5 24 10.5C23.3787 10.5 22.875 11.0037 22.875 11.625V21.75Z" stroke="white" stroke-width="4.5" stroke-linecap="round" mask="url(#path-2-outside-1_2008_2)"/>
<defs>
<filter id="filter0_d_2008_2" x="9.375" y="7.125" width="29.25" height="36" filterUnits="userSpaceOnUse" color-interpolation-filters="sRGB">
<feFlood flood-opacity="0" result="BackgroundImageFix"/>
<feColorMatrix in="SourceAlpha" type="matrix" values="0 0 0 0 0 0 0 0 0 0 0 0 0 0 0 0 0 0 127 0" result="hardAlpha"/>
<feOffset dy="1.125"/>
<feGaussianBlur stdDeviation="1.125"/>
<feComposite in2="hardAlpha" operator="out"/>
<feColorMatrix type="matrix" values="0 0 0 0 0.0705882 0 0 0 0 0.0745098 0 0 0 0 0.101961 0 0 0 0.25 0"/>
<feBlend mode="normal" in2="BackgroundImageFix" result="effect1_dropShadow_2008_2"/>
<feBlend mode="normal" in="SourceGraphic" in2="effect1_dropShadow_2008_2" result="shape"/>
</filter>
</defs>
</svg>
